<svg width="1200" height="900" viewBox="0 0 1200 900" fill="none" xmlns="http://www.w3.org/2000/svg" role="img" aria-label="Sensitive repair facial visual with soft calming barrier care mood">
  <defs>
    <linearGradient id="g" x1="0" y1="0" x2="1200" y2="900" gradientUnits="userSpaceOnUse"><stop stop-color="#fffaf6"/><stop offset="0.55" stop-color="#f5e6e4"/><stop offset="1" stop-color="#ffffff"/></linearGradient>
    <radialGradient id="r" cx="0" cy="0" r="1" gradientUnits="userSpaceOnUse" gradientTransform="translate(880 190) rotate(126) scale(650 520)"><stop stop-color="#d8aaa8" stop-opacity="0.38"/><stop offset="1" stop-color="#d8aaa8" stop-opacity="0"/></radialGradient>
    <filter id="blur"><feGaussianBlur stdDeviation="22"/></filter>
    <pattern id="noise" width="80" height="80" patternUnits="userSpaceOnUse"><circle cx="8" cy="12" r="1" fill="#8d6b5a" opacity=".10"/><circle cx="55" cy="36" r="1" fill="#fff" opacity=".28"/><circle cx="33" cy="69" r="1" fill="#b88a5a" opacity=".12"/></pattern>
  </defs>
  <rect width="1200" height="900" rx="56" fill="url(#g)"/>
  <rect width="1200" height="900" rx="56" fill="url(#r)"/>
  <rect width="1200" height="900" rx="56" fill="url(#noise)" opacity=".45"/>
  <circle cx="224" cy="170" r="118" fill="#f7d9cb" opacity=".55" filter="url(#blur)"/>
  <circle cx="985" cy="710" r="160" fill="#d8aaa8" opacity=".18" filter="url(#blur)"/>
  <path d="M100 688 C292 548 388 742 563 590 C735 441 856 500 1090 328" stroke="#ffffff" stroke-opacity=".55" stroke-width="5"/>
  <path d="M146 725 C330 596 420 785 594 635 C762 490 892 546 1080 405" stroke="#d8aaa8" stroke-opacity=".25" stroke-width="3"/>
  <g transform="translate(422 188)">
    <rect x="85" y="92" width="310" height="455" rx="155" fill="#fff" opacity=".62"/>
    <rect x="132" y="50" width="216" height="112" rx="44" fill="#f1dccd" opacity=".85"/>
    <path d="M240 211 C329 291 319 420 239 481 C162 421 150 296 240 211Z" fill="#d8aaa8" opacity=".24"/>
    <path d="M202 302 C234 282 278 286 306 318" stroke="#d8aaa8" stroke-width="14" stroke-linecap="round" opacity=".7"/>
    <circle cx="188" cy="391" r="18" fill="#d8aaa8" opacity=".34"/>
    <circle cx="310" cy="388" r="13" fill="#ffffff" opacity=".82"/>
  </g>
  <g opacity=".72">
    <ellipse cx="250" cy="580" rx="105" ry="28" fill="#fff" opacity=".55"/>
    <ellipse cx="900" cy="266" rx="150" ry="34" fill="#fff" opacity=".42"/>
    <path d="M825 245 C870 180 936 170 987 207 C925 236 884 260 825 245Z" fill="#cfb79b" opacity=".3"/>
    <path d="M245 555 C292 498 350 497 392 529 C344 553 302 574 245 555Z" fill="#d9b68b" opacity=".28"/>
  </g>
</svg>